<svg width="73" height="73" viewBox="0 0 73 73" fill="none" xmlns="http://www.w3.org/2000/svg">
<path d="M36.4545 0C16.3204 0 0 16.3408 0 36.5C0 56.6592 16.3204 73 36.4545 73C56.5886 73 72.909 56.6592 72.909 36.5C72.909 16.3408 56.5886 0 36.4545 0ZM58.236 26.5222C57.8855 26.7573 55.3337 28.4946 54.3382 30.7583C54.3382 30.7583 51.8425 37.6476 47.2261 44.9055C46.2131 48.1835 51.3973 57.4349 51.3973 57.4349H51.3588C52.2351 57.4349 52.9361 58.1578 52.9361 59.0142C52.9361 59.8705 52.214 60.5935 51.3588 60.5935H49.4484C49.3503 60.5935 49.2731 60.5549 49.175 60.5338C49.154 60.5128 49.1364 60.5128 49.1154 60.5128C48.5686 60.397 48.1409 60.0039 47.9657 59.4775C47.9657 59.4564 47.9447 59.4564 47.9447 59.4388C47.3032 58.035 40.8501 48.1414 40.8501 48.1414C39.2902 45.253 36.2687 43.4596 32.9948 43.4596C31.5927 43.4596 30.2677 43.7719 29.0199 44.3966L29.5842 45.5267C30.6568 45.0003 31.7855 44.7265 32.9948 44.7265C35.7429 44.7265 38.2387 46.19 39.6197 48.552C39.9527 49.2925 40.1455 50.1313 40.1455 51.0123L38.2947 57.119H42.1154C43.0689 57.119 43.8505 57.8981 43.8505 58.8562C43.8505 59.8144 43.0724 60.5935 42.1154 60.5935H24.7119C20.9894 60.5935 17.8312 59.2669 15.5913 56.7505C13.6214 54.5254 12.5312 51.5598 12.5312 48.3976C12.5312 45.5302 12.9203 42.6804 13.2533 40.164C13.6634 37.1774 14.1121 32.5552 13.369 31.6953C13.2323 31.5409 12.9589 31.4602 12.5312 31.4602C11.5778 31.4602 10.7961 30.6811 10.7961 29.7229C10.7961 28.7648 11.5743 27.9857 12.5312 27.9857C13.9929 27.9857 15.1637 28.4735 15.9804 29.4106C17.7751 31.4602 17.3054 36.2192 16.7025 40.6519C16.3695 43.07 16.0189 45.7829 16.0014 48.4362C15.9629 51.7914 18.5357 53.9393 19.0229 54.2692V48.3169C19.0229 34.3662 29.0795 31.769 35.14 29.2526L43.8505 25.2517C43.8505 25.2517 46.0729 19.0853 47.3207 17.72C51.7268 12.9575 56.4414 12.3328 56.4414 12.3328C55.7193 14.8492 54.5135 17.4849 55.0182 16.7619C55.0182 16.7619 57.4754 18.1272 58.215 19.1239C58.8004 19.903 59.228 22.4615 59.228 22.4615C59.4804 22.8897 60.2235 23.8654 60.1814 24.3146C60.0833 25.3289 59.0107 25.9922 58.2325 26.5187L58.236 26.5222Z" fill="#C75E90"/>
</svg>
